<svg id="content" xmlns="http://www.w3.org/2000/svg" viewBox="0 0 57.95 70.52"><defs><style>.cls-1{fill:#bad5ef;}.cls-2{fill:#3182ce;}.cls-3{fill:#fff;}.cls-4{fill:#76acde;}</style></defs><title>logo-02</title><g id="_Group_" data-name="&lt;Group&gt;"><g id="_Group_2" data-name="&lt;Group&gt;"><g id="_Group_3" data-name="&lt;Group&gt;"><g id="_Group_4" data-name="&lt;Group&gt;"><path id="_Path_" data-name="&lt;Path&gt;" class="cls-1" d="M32.52,4.29h-.26a.75.75,0,0,0-.15,0h0a16.47,16.47,0,0,0-8.34,2.77c-9,5.64-16.5,18.68-16.72,29.26C6.94,42,8.84,46,12,47.93l.19.14,6.44,3.74a14.58,14.58,0,0,1,3.83,7.57L22.76,61a1.21,1.21,0,0,0,.17.4v0s1.82,4.61,9.12,5.54a.49.49,0,0,0,.53-.38l8-41.64a31.83,31.83,0,0,0,1.18-6.16l.7-3.62,5-3.2S41.64,4.25,32.52,4.29Z"/><path id="_Compound_Path_" data-name="&lt;Compound Path&gt;" class="cls-2" d="M32.11,67.44H32c-7.47-1-9.38-5.61-9.46-5.81l0-.06a1.5,1.5,0,0,1-.16-.44L22,59.47a14.16,14.16,0,0,0-3.67-7.32L12,48.43l-.22-.15c-3.4-2.07-5.21-6.33-5.1-12,.22-10.65,7.81-23.94,16.92-29.6a17,17,0,0,1,8.3-2.84l.25,0h.38l0,.43V3.86c9.23,0,15.25,7.82,15.31,7.9l.27.36-5.25,3.35-.67,3.44A31.25,31.25,0,0,1,41,25.11l-8,41.6A.9.9,0,0,1,32.11,67.44Zm-8.75-6c.28.62,2.25,4.37,8.74,5.19a.08.08,0,0,0,.07,0l8-41.64a31.1,31.1,0,0,0,1.18-6.11L42.09,15l4.78-3.05c-1.28-1.49-6.63-7.2-14.28-7.2h-.48A16.17,16.17,0,0,0,24,7.42C15.1,13,7.69,25.92,7.47,36.33c-.1,5.33,1.57,9.32,4.72,11.25l.21.14h0l6.42,3.72.08.07a15,15,0,0,1,3.94,7.79L23.17,61a1.25,1.25,0,0,0,.12.27l.07.11Z"/></g><g id="_Group_5" data-name="&lt;Group&gt;"><path id="_Path_2" data-name="&lt;Path&gt;" class="cls-3" d="M31.9,36.83l6.84-20.78S36.15,8.78,24.35,6.71c-.21.12-.43.22-.65.35C16.89,11.3,11,20,8.39,28.38,8.39,28.39,13.52,34.89,31.9,36.83Z"/><path id="_Compound_Path_2" data-name="&lt;Compound Path&gt;" class="cls-2" d="M32.19,37.28l-.34,0C13.6,35.32,8.28,28.92,8.06,28.65l-.14-.18L8,28.26c2.76-9,8.84-17.42,15.49-21.55l.4-.23.26-.14.14-.07.15,0C36.33,8.38,39,15.6,39.14,15.91l0,.14,0,.13Zm-23.33-9c.94,1,6.5,6.31,22.74,8.09l6.7-20.3c-.42-1-3.45-7-13.87-8.92l-.16.08-.34.19C17.49,11.43,11.6,19.6,8.86,28.28Z"/></g><g id="_Group_6" data-name="&lt;Group&gt;"><path id="_Path_3" data-name="&lt;Path&gt;" class="cls-2" d="M50.78,21.87c0-11.37-8.17-15.82-18.1-9.64C23.62,17.86,16.17,30.9,16,41.49c-.14,6.68,2.49,11.06,6.64,12.44,4.37,1.44,7.6,5,8.73,10.62l.33,1.66c.17.83.88,1.09,1.71.61h0a3.9,3.9,0,0,0,1.7-2.58l.25-1.49A51.8,51.8,0,0,1,43.77,42C48,35.91,50.78,28.47,50.78,21.87Z"/><path id="_Compound_Path_3" data-name="&lt;Compound Path&gt;" class="cls-2" d="M32.59,67.48a1.42,1.42,0,0,1-.55-.11,1.44,1.44,0,0,1-.79-1.08l-.33-1.66c-1.06-5.26-4-8.82-8.46-10.3s-7.06-6.19-6.92-12.85c.21-10.66,7.8-23.94,16.91-29.61,5-3.1,9.72-3.71,13.32-1.71s5.43,6.11,5.43,11.71c0,6.49-2.58,13.92-7.08,20.39a51.34,51.34,0,0,0-8.39,20.56l-.24,1.49a4.33,4.33,0,0,1-1.91,2.88A2.07,2.07,0,0,1,32.59,67.48ZM41.14,9.85a15.93,15.93,0,0,0-8.24,2.74C24,18.12,16.59,31.09,16.38,41.5c-.13,6.26,2.19,10.65,6.35,12,4.71,1.57,7.91,5.45,9,10.95l.34,1.65a.63.63,0,0,0,.3.48,1,1,0,0,0,.78-.14,3.49,3.49,0,0,0,1.5-2.29l.24-1.49a52.19,52.19,0,0,1,8.53-20.9c4.4-6.33,6.93-13.59,6.93-19.91,0-5.28-1.78-9.18-5-11A8.6,8.6,0,0,0,41.14,9.85Z"/></g><g id="_Group_7" data-name="&lt;Group&gt;"><ellipse id="_Path_4" data-name="&lt;Path&gt;" class="cls-2" cx="33.37" cy="31.93" rx="13.86" ry="8" transform="translate(-10.97 44.86) rotate(-60)"/><path id="_Compound_Path_4" data-name="&lt;Compound Path&gt;" class="cls-1" d="M29,45a5.39,5.39,0,0,1-2.76-.72c-2-1.14-3.08-3.53-3.08-6.71a20.44,20.44,0,0,1,2.92-9.87,20.37,20.37,0,0,1,7.09-7.46c2.75-1.59,5.36-1.84,7.35-.69,4,2.32,4.09,9.76.15,16.58h0a20.38,20.38,0,0,1-7.08,7.47A9.31,9.31,0,0,1,29,45Zm8.75-25.32A8.42,8.42,0,0,0,33.58,21a19.41,19.41,0,0,0-6.78,7.16A19.5,19.5,0,0,0,24,37.58c0,2.87.94,5,2.66,6s4,.75,6.51-.68a19.55,19.55,0,0,0,6.77-7.16c3.71-6.42,3.77-13.34.16-15.43A4.67,4.67,0,0,0,37.74,19.69Z"/></g><g id="_Group_8" data-name="&lt;Group&gt;"><path id="_Path_5" data-name="&lt;Path&gt;" class="cls-4" d="M26.43,27.91c-3.19,5.53-3.71,11.42-1.58,14.51,3.73.23,8.51-3.15,11.67-8.63s3.72-11.42,1.58-14.51C34.38,19.05,29.59,22.44,26.43,27.91Z"/><path id="_Compound_Path_5" data-name="&lt;Compound Path&gt;" class="cls-1" d="M25.23,42.86l-.4,0h-.21l-.12-.17c-2.26-3.28-1.62-9.43,1.57-15h0c3.19-5.54,8-9.09,12.06-8.84l.2,0,.12.16c2.27,3.29,1.63,9.44-1.56,15C33.8,39.36,29.16,42.86,25.23,42.86ZM25.08,42c3.59.07,8.14-3.34,11.08-8.43s3.66-10.81,1.71-13.89c-3.59-.06-8.14,3.35-11.07,8.44h0C23.82,33.28,23.13,38.94,25.08,42Z"/></g></g><g id="_Group_9" data-name="&lt;Group&gt;"><rect id="_Path_6" data-name="&lt;Path&gt;" class="cls-1" x="40.65" y="24.89" width="0.84" height="4.21" transform="translate(-2.16 50.38) rotate(-61.72)"/></g><g id="_Group_10" data-name="&lt;Group&gt;"><rect id="_Path_7" data-name="&lt;Path&gt;" class="cls-1" x="30.32" y="40.61" width="0.84" height="4.21" transform="translate(-21.44 49.55) rotate(-61.72)"/></g><g id="_Group_11" data-name="&lt;Group&gt;"><path id="_Path_8" data-name="&lt;Path&gt;" class="cls-2" d="M31.18,64.94a24,24,0,0,1-9.24-6l.64-.54a23.82,23.82,0,0,0,8.9,5.79Z"/></g><g id="_Group_12" data-name="&lt;Group&gt;"><path id="_Path_9" data-name="&lt;Path&gt;" class="cls-2" d="M16.27,46.82a58,58,0,0,1-9-5.39l.51-.68a56.12,56.12,0,0,0,8.87,5.31Z"/></g><g id="_Group_13" data-name="&lt;Group&gt;"><path id="_Path_10" data-name="&lt;Path&gt;" class="cls-2" d="M38.51,10C32.24,5.83,28.32,5.35,28.28,5.35l.09-.84c.17,0,4.15.49,10.61,4.83Z"/></g><g id="_Group_14" data-name="&lt;Group&gt;"><g id="_Group_15" data-name="&lt;Group&gt;"><rect id="_Path_11" data-name="&lt;Path&gt;" class="cls-1" x="37.7" y="50.64" width="2.18" height="0.84" transform="translate(-23.44 66.53) rotate(-66.74)"/></g><g id="_Group_16" data-name="&lt;Group&gt;"><rect id="_Path_12" data-name="&lt;Path&gt;" class="cls-1" x="34.73" y="60.63" width="1.82" height="0.84" transform="translate(-31.29 83.81) rotate(-78.51)"/></g></g></g></g></svg>